<svg width="98" height="24" viewBox="0 0 98 24" fill="none" xmlns="http://www.w3.org/2000/svg">
<path d="M2.67578 4.22547L9.82121 2.67505L16.1128 4.06818V7.14656L9.82121 5.75343L6.4732 6.58481V17.5052L9.82121 18.2467L16.1128 16.8536V19.9319L9.82121 21.3251L2.67578 19.7746V4.22547Z" fill="#0D2E87"/>
<path d="M31.8366 19.8196L24.9833 21.3251L18.13 19.8196V3.12445H21.9274V17.5501L24.9833 18.2467L28.0392 17.5501V3.12445H31.8366V19.8196Z" fill="#0D2E87"/>
<path d="M46.5372 3.12445V7.07915L41.5489 11.5057L46.9641 15.8874V20.8757H43.2117V17.1906L39.0098 13.7752L37.6616 14.9886V20.8757H33.8642V3.12445H37.6616V10.517L42.7847 5.95566V3.12445H46.5372Z" fill="#0D2E87"/>
<path d="M62.2179 19.8421L55.4544 21.3251L48.5337 19.8196V4.18053L55.4544 2.67505L61.7685 4.15806V10.7642L59.2743 11.5956L62.2179 12.4719V19.8421ZM58.4654 17.64V13.9999L55.7915 13.146H52.2862V17.6175L55.4544 18.2916L58.4654 17.64ZM55.4544 5.70849L52.2862 6.38258V10.1126H55.3421L58.016 9.14638V6.36011L55.4544 5.70849Z" fill="#0D2E87"/>
<path d="M71.6893 5.75343L68.0267 6.56234V17.4378L71.6893 18.2467L75.3519 17.4378V6.56234L71.6893 5.75343ZM79.1493 19.7072L71.6893 21.3251L64.2293 19.7072V4.29288L71.6893 2.67505L79.1493 4.29288V19.7072Z" fill="#0D2E87"/>
<path d="M95.0792 19.8421L88.3158 21.3251L81.3951 19.8196V4.18053L88.3158 2.67505L94.6298 4.15806V10.7642L92.1357 11.5956L95.0792 12.4719V19.8421ZM91.3268 17.64V13.9999L88.6528 13.146H85.1475V17.6175L88.3158 18.2916L91.3268 17.64ZM88.3158 5.70849L85.1475 6.38258V10.1126H88.2034L90.8774 9.14638V6.36011L88.3158 5.70849Z" fill="#0D2E87"/>
</svg>
